<?xml version="1.0" standalone="no"?>
<!DOCTYPE svg PUBLIC "-//W3C//DTD SVG 20010904//EN"
 "http://www.w3.org/TR/2001/REC-SVG-20010904/DTD/svg10.dtd">
<svg version="1.0" xmlns="http://www.w3.org/2000/svg"
 width="500.000000pt" height="500.000000pt" viewBox="0 0 500.000000 500.000000"
 preserveAspectRatio="xMidYMid meet">

<g transform="translate(0.000000,500.000000) scale(0.100000,-0.100000)"
fill="#000000" stroke="none">
<path d="M1940 3895 c-184 -52 -322 -239 -265 -359 15 -32 16 -43 6 -79 -7
-23 -24 -61 -37 -84 -13 -23 -24 -47 -24 -53 0 -32 141 82 181 147 14 22 40
43 73 58 28 13 58 30 67 37 27 22 59 81 59 111 0 25 3 27 43 27 122 -1 236
-101 237 -209 0 -84 -80 -176 -231 -266 -46 -27 -88 -52 -93 -54 -31 -13 -228
-139 -271 -173 -171 -140 -266 -290 -296 -470 -16 -94 -2 -201 38 -290 l25
-57 -36 -42 c-66 -77 -94 -204 -65 -288 6 -18 9 -34 7 -36 -6 -7 -97 25 -128
43 -39 24 -80 65 -96 94 -33 63 -6 176 62 258 17 21 21 29 9 20 -45 -34 -88
-89 -117 -148 -26 -54 -30 -71 -24 -110 11 -81 71 -139 187 -178 85 -29 277
-42 389 -26 l65 9 -102 2 c-91 1 -104 3 -123 23 -22 24 -40 77 -40 119 0 85
72 186 166 234 55 28 66 30 169 30 96 -1 117 -4 165 -26 30 -14 77 -43 103
-63 27 -21 51 -36 53 -33 6 6 -55 88 -85 115 -14 13 -47 35 -73 50 -55 31 -55
33 -2 128 125 228 411 275 636 105 30 -22 69 -61 87 -86 18 -26 35 -44 37 -42
10 9 -35 108 -70 155 -20 27 -61 67 -92 88 l-56 39 54 50 c213 198 586 192
770 -13 40 -45 73 -91 67 -96 -2 -1 -25 -14 -50 -29 -50 -29 -119 -98 -143
-146 -21 -40 -14 -39 38 4 87 71 236 114 326 94 66 -14 102 -29 130 -55 21
-19 38 -24 100 -26 l75 -3 -58 -47 -59 -48 -148 0 -148 0 -161 -80 c-88 -44
-163 -80 -165 -80 -3 0 -30 -11 -61 -25 -154 -70 -210 -93 -400 -163 -208 -77
-551 -176 -701 -201 -32 -6 -102 -18 -154 -27 -132 -24 -520 -25 -600 -2 -220
63 -284 163 -206 322 32 65 148 184 237 244 74 50 70 53 -14 11 -179 -90 -338
-231 -376 -334 -64 -171 33 -295 278 -355 193 -48 453 -44 756 12 146 26 436
109 605 173 268 101 563 237 880 407 85 45 85 45 160 39 71 -6 74 -7 50 -20
-14 -8 -96 -54 -183 -103 -375 -210 -779 -400 -1022 -480 -245 -81 -394 -116
-615 -143 l-115 -14 135 5 c224 9 423 42 658 109 l124 36 257 -7 257 -7 84 51
c47 28 94 58 105 67 19 16 18 16 -17 11 -20 -2 -72 -26 -114 -51 l-77 -47
-201 7 c-180 7 -198 9 -171 21 17 7 85 36 152 64 l123 50 397 0 c387 0 399 -1
411 -20 26 -42 102 -16 102 35 0 48 -63 73 -100 40 -15 -13 -66 -15 -371 -13
l-354 3 102 57 102 57 385 7 385 7 26 -31 c21 -26 34 -32 65 -32 55 0 85 28
85 78 0 56 -26 82 -81 82 -35 0 -47 -5 -68 -30 l-25 -30 -325 2 c-209 2 -326
7 -326 13 -1 6 75 58 168 116 l169 107 173 7 c136 5 181 11 213 26 l42 19 -81
0 c-45 0 -115 3 -157 6 l-76 7 67 53 c80 65 113 69 155 24 37 -39 84 -41 121
-4 42 43 33 104 -21 132 -37 20 -64 14 -99 -23 l-33 -35 -102 0 -102 0 -40 36
c-53 48 -129 80 -208 89 -58 6 -66 10 -77 33 -6 15 -34 55 -61 88 l-50 62 92
44 c94 46 194 115 235 163 38 44 82 117 82 137 0 17 -3 17 -32 5 -89 -37 -92
-30 -20 37 107 102 162 227 147 336 -9 65 -21 71 -30 14 -8 -56 -35 -121 -74
-177 -36 -53 -135 -150 -192 -189 -53 -36 -177 -99 -242 -123 -26 -10 -46 -20
-43 -22 2 -2 50 3 107 12 150 23 209 29 209 20 0 -36 -111 -127 -222 -182
l-69 -35 -69 36 c-105 55 -150 66 -285 66 -239 0 -388 -53 -513 -184 l-56 -58
-110 -2 c-129 -2 -178 -18 -276 -86 -73 -52 -136 -133 -175 -224 l-28 -66 -49
0 c-43 0 -50 3 -58 26 -38 99 25 312 133 452 57 75 183 190 283 259 262 179
333 243 380 339 39 80 44 181 14 268 -42 117 -135 213 -250 257 -73 28 -223
35 -300 14z m-133 -269 c-15 -22 -53 -43 -62 -34 -8 8 28 67 43 71 28 6 36
-10 19 -37z m-210 -1053 c-45 -90 -58 -211 -32 -299 6 -18 -1 -26 -40 -48 -26
-14 -51 -26 -56 -26 -12 0 -11 85 1 151 12 64 67 179 110 232 17 20 33 37 36
37 2 0 -6 -21 -19 -47z m2521 -105 c28 -28 7 -78 -33 -78 -27 0 -45 18 -45 45
0 27 18 45 45 45 12 0 26 -5 33 -12z m15 -462 c23 -34 -20 -81 -60 -65 -29 11
-32 63 -5 78 19 11 53 5 65 -13z m-313 -200 c0 -29 -28 -42 -48 -22 -20 20 -8
46 23 46 20 0 25 -5 25 -24z"/>
<path d="M3886 3847 c-10 -89 -32 -121 -92 -136 -27 -7 -62 -16 -79 -20 -25
-6 -18 -9 43 -15 53 -5 79 -13 96 -29 23 -22 46 -91 46 -141 0 -14 5 -26 10
-26 6 0 10 20 10 44 0 47 16 104 35 124 7 7 48 19 91 26 76 13 78 13 39 20
-136 24 -158 43 -170 147 -4 33 -11 61 -15 64 -4 3 -11 -24 -14 -58z"/>
<path d="M3719 3545 c-180 -154 -444 -269 -854 -370 -358 -88 -610 -188 -760
-300 -124 -93 -239 -224 -297 -338 l-29 -59 98 99 c105 106 175 158 291 217
166 84 269 115 597 181 259 52 342 71 434 100 274 87 459 219 538 385 26 54
47 120 40 126 -2 3 -29 -16 -58 -41z"/>
<path d="M4193 2238 c-11 -13 -23 -31 -26 -40 -6 -16 -21 -18 -124 -18 -65 -1
-174 -5 -243 -9 -111 -7 -130 -11 -168 -35 -23 -14 -42 -30 -42 -35 0 -5 -3
-17 -6 -26 -4 -10 14 -3 57 22 l64 38 237 3 c228 3 237 3 257 -17 26 -26 81
-28 110 -3 33 26 38 81 11 115 -29 36 -96 39 -127 5z m91 -24 c34 -34 9 -78
-41 -72 -23 2 -29 9 -31 33 -6 46 40 71 72 39z"/>
</g>
</svg>
